<mxfile host="65bd71144e" modified="2021-03-03T03:47:18.023Z" agent="5.0 (Macintosh; Intel Mac OS X 10_15_7) AppleWebKit/537.36 (KHTML, like Gecko) Code/1.52.1 Chrome/83.0.4103.122 Electron/9.3.5 Safari/537.36" etag="-1h3lMKVj3AVT8JkbHh9" version="14.2.4" type="embed">
    <diagram id="3dSBCUevgnGxwODY9Vac" name="Page-1">
        <mxGraphModel dx="856" dy="800" grid="1" gridSize="10" guides="1" tooltips="1" connect="1" arrows="1" fold="1" page="1" pageScale="1" pageWidth="827" pageHeight="1169" math="0" shadow="0">
            <root>
                <mxCell id="0"/>
                <mxCell id="1" parent="0"/>
                <mxCell id="mxjQj-CQAJq9ulpeBBqR-27" style="edgeStyle=orthogonalEdgeStyle;rounded=0;orthogonalLoop=1;jettySize=auto;html=1;exitX=1;exitY=0.5;exitDx=0;exitDy=0;entryX=0;entryY=0.5;entryDx=0;entryDy=0;" parent="1" source="mxjQj-CQAJq9ulpeBBqR-1" target="mxjQj-CQAJq9ulpeBBqR-2" edge="1">
                    <mxGeometry relative="1" as="geometry"/>
                </mxCell>
                <mxCell id="mxjQj-CQAJq9ulpeBBqR-1" value="user shop &lt;br&gt;ログイン選択画面" style="rounded=0;whiteSpace=wrap;html=1;" parent="1" vertex="1">
                    <mxGeometry x="20" y="50" width="120" height="60" as="geometry"/>
                </mxCell>
                <mxCell id="mxjQj-CQAJq9ulpeBBqR-28" style="edgeStyle=orthogonalEdgeStyle;rounded=0;orthogonalLoop=1;jettySize=auto;html=1;exitX=1;exitY=0.5;exitDx=0;exitDy=0;entryX=0;entryY=0.5;entryDx=0;entryDy=0;" parent="1" source="mxjQj-CQAJq9ulpeBBqR-2" target="mxjQj-CQAJq9ulpeBBqR-6" edge="1">
                    <mxGeometry relative="1" as="geometry"/>
                </mxCell>
                <mxCell id="mxjQj-CQAJq9ulpeBBqR-2" value="userログイン画面" style="rounded=0;whiteSpace=wrap;html=1;" parent="1" vertex="1">
                    <mxGeometry x="180" y="50" width="120" height="60" as="geometry"/>
                </mxCell>
                <mxCell id="mxjQj-CQAJq9ulpeBBqR-3" value="user新規登録画面" style="rounded=0;whiteSpace=wrap;html=1;" parent="1" vertex="1">
                    <mxGeometry x="180" y="140" width="120" height="60" as="geometry"/>
                </mxCell>
                <mxCell id="mxjQj-CQAJq9ulpeBBqR-4" value="shopログイン画面" style="rounded=0;whiteSpace=wrap;html=1;" parent="1" vertex="1">
                    <mxGeometry x="180" y="470" width="120" height="60" as="geometry"/>
                </mxCell>
                <mxCell id="mxjQj-CQAJq9ulpeBBqR-43" style="edgeStyle=orthogonalEdgeStyle;rounded=1;orthogonalLoop=1;jettySize=auto;html=1;" parent="1" source="mxjQj-CQAJq9ulpeBBqR-5" edge="1">
                    <mxGeometry relative="1" as="geometry">
                        <mxPoint x="330" y="500" as="targetPoint"/>
                        <Array as="points">
                            <mxPoint x="310" y="590"/>
                            <mxPoint x="310" y="500"/>
                        </Array>
                    </mxGeometry>
                </mxCell>
                <mxCell id="mxjQj-CQAJq9ulpeBBqR-5" value="shop新規登録画面" style="rounded=0;whiteSpace=wrap;html=1;" parent="1" vertex="1">
                    <mxGeometry x="180" y="560" width="120" height="60" as="geometry"/>
                </mxCell>
                <mxCell id="mxjQj-CQAJq9ulpeBBqR-29" style="edgeStyle=orthogonalEdgeStyle;rounded=0;orthogonalLoop=1;jettySize=auto;html=1;exitX=1;exitY=0.5;exitDx=0;exitDy=0;entryX=0;entryY=0.5;entryDx=0;entryDy=0;" parent="1" source="mxjQj-CQAJq9ulpeBBqR-6" target="mxjQj-CQAJq9ulpeBBqR-11" edge="1">
                    <mxGeometry relative="1" as="geometry"/>
                </mxCell>
                <mxCell id="mxjQj-CQAJq9ulpeBBqR-6" value="userトップページ" style="rounded=0;whiteSpace=wrap;html=1;" parent="1" vertex="1">
                    <mxGeometry x="330" y="50" width="120" height="60" as="geometry"/>
                </mxCell>
                <mxCell id="mxjQj-CQAJq9ulpeBBqR-7" value="・投稿一覧機能" style="text;html=1;strokeColor=none;fillColor=none;align=left;verticalAlign=middle;whiteSpace=wrap;rounded=0;" parent="1" vertex="1">
                    <mxGeometry x="330" y="120" width="120" height="40" as="geometry"/>
                </mxCell>
                <mxCell id="mxjQj-CQAJq9ulpeBBqR-44" style="edgeStyle=orthogonalEdgeStyle;rounded=1;orthogonalLoop=1;jettySize=auto;html=1;entryX=0;entryY=0.5;entryDx=0;entryDy=0;" parent="1" source="mxjQj-CQAJq9ulpeBBqR-8" target="mxjQj-CQAJq9ulpeBBqR-18" edge="1">
                    <mxGeometry relative="1" as="geometry"/>
                </mxCell>
                <mxCell id="mxjQj-CQAJq9ulpeBBqR-45" style="edgeStyle=orthogonalEdgeStyle;rounded=1;orthogonalLoop=1;jettySize=auto;html=1;entryX=0;entryY=0.5;entryDx=0;entryDy=0;" parent="1" source="mxjQj-CQAJq9ulpeBBqR-8" target="mxjQj-CQAJq9ulpeBBqR-19" edge="1">
                    <mxGeometry relative="1" as="geometry">
                        <Array as="points">
                            <mxPoint x="470" y="500"/>
                            <mxPoint x="470" y="580"/>
                        </Array>
                    </mxGeometry>
                </mxCell>
                <mxCell id="mxjQj-CQAJq9ulpeBBqR-46" style="edgeStyle=orthogonalEdgeStyle;rounded=1;orthogonalLoop=1;jettySize=auto;html=1;entryX=0;entryY=0.5;entryDx=0;entryDy=0;" parent="1" source="mxjQj-CQAJq9ulpeBBqR-8" target="mxjQj-CQAJq9ulpeBBqR-20" edge="1">
                    <mxGeometry relative="1" as="geometry">
                        <Array as="points">
                            <mxPoint x="470" y="500"/>
                            <mxPoint x="470" y="660"/>
                        </Array>
                    </mxGeometry>
                </mxCell>
                <mxCell id="mxjQj-CQAJq9ulpeBBqR-47" style="edgeStyle=orthogonalEdgeStyle;rounded=1;orthogonalLoop=1;jettySize=auto;html=1;entryX=0;entryY=0.5;entryDx=0;entryDy=0;" parent="1" source="mxjQj-CQAJq9ulpeBBqR-8" target="mxjQj-CQAJq9ulpeBBqR-21" edge="1">
                    <mxGeometry relative="1" as="geometry">
                        <Array as="points">
                            <mxPoint x="470" y="500"/>
                            <mxPoint x="470" y="740"/>
                        </Array>
                    </mxGeometry>
                </mxCell>
                <mxCell id="mxjQj-CQAJq9ulpeBBqR-48" style="edgeStyle=orthogonalEdgeStyle;rounded=1;orthogonalLoop=1;jettySize=auto;html=1;entryX=-0.023;entryY=0.588;entryDx=0;entryDy=0;entryPerimeter=0;startArrow=classic;startFill=1;" parent="1" source="mxjQj-CQAJq9ulpeBBqR-8" target="mxjQj-CQAJq9ulpeBBqR-22" edge="1">
                    <mxGeometry relative="1" as="geometry">
                        <Array as="points">
                            <mxPoint x="470" y="500"/>
                            <mxPoint x="470" y="825"/>
                        </Array>
                    </mxGeometry>
                </mxCell>
                <mxCell id="mxjQj-CQAJq9ulpeBBqR-8" value="shopトップページ" style="rounded=0;whiteSpace=wrap;html=1;" parent="1" vertex="1">
                    <mxGeometry x="330" y="470" width="120" height="60" as="geometry"/>
                </mxCell>
                <mxCell id="mxjQj-CQAJq9ulpeBBqR-10" value="・投稿一覧機能" style="text;html=1;strokeColor=none;fillColor=none;align=left;verticalAlign=middle;whiteSpace=wrap;rounded=0;" parent="1" vertex="1">
                    <mxGeometry x="330" y="540" width="120" height="40" as="geometry"/>
                </mxCell>
                <mxCell id="mxjQj-CQAJq9ulpeBBqR-30" style="edgeStyle=orthogonalEdgeStyle;rounded=0;orthogonalLoop=1;jettySize=auto;html=1;exitX=1;exitY=0.5;exitDx=0;exitDy=0;entryX=0;entryY=0.5;entryDx=0;entryDy=0;" parent="1" source="mxjQj-CQAJq9ulpeBBqR-11" target="mxjQj-CQAJq9ulpeBBqR-17" edge="1">
                    <mxGeometry relative="1" as="geometry">
                        <mxPoint x="620" y="80" as="targetPoint"/>
                    </mxGeometry>
                </mxCell>
                <mxCell id="mxjQj-CQAJq9ulpeBBqR-31" value="" style="edgeStyle=orthogonalEdgeStyle;rounded=0;orthogonalLoop=1;jettySize=auto;html=1;" parent="1" source="mxjQj-CQAJq9ulpeBBqR-11" target="mxjQj-CQAJq9ulpeBBqR-6" edge="1">
                    <mxGeometry relative="1" as="geometry"/>
                </mxCell>
                <mxCell id="2" style="edgeStyle=elbowEdgeStyle;rounded=0;orthogonalLoop=1;jettySize=auto;html=1;entryX=0.004;entryY=0.179;entryDx=0;entryDy=0;entryPerimeter=0;" edge="1" parent="1" source="mxjQj-CQAJq9ulpeBBqR-11" target="mxjQj-CQAJq9ulpeBBqR-50">
                    <mxGeometry relative="1" as="geometry">
                        <Array as="points">
                            <mxPoint x="610" y="270"/>
                            <mxPoint x="620" y="270"/>
                            <mxPoint x="620" y="300"/>
                        </Array>
                    </mxGeometry>
                </mxCell>
                <mxCell id="mxjQj-CQAJq9ulpeBBqR-11" value="投稿&lt;br&gt;詳細画面" style="rounded=0;whiteSpace=wrap;html=1;" parent="1" vertex="1">
                    <mxGeometry x="480" y="50" width="120" height="60" as="geometry"/>
                </mxCell>
                <mxCell id="mxjQj-CQAJq9ulpeBBqR-12" value="予約一覧画面" style="rounded=0;whiteSpace=wrap;html=1;" parent="1" vertex="1">
                    <mxGeometry x="480" y="130" width="120" height="60" as="geometry"/>
                </mxCell>
                <mxCell id="mxjQj-CQAJq9ulpeBBqR-13" value="user詳細画面" style="rounded=0;whiteSpace=wrap;html=1;" parent="1" vertex="1">
                    <mxGeometry x="480" y="210" width="120" height="60" as="geometry"/>
                </mxCell>
                <mxCell id="mxjQj-CQAJq9ulpeBBqR-52" style="edgeStyle=orthogonalEdgeStyle;rounded=1;orthogonalLoop=1;jettySize=auto;html=1;entryX=0;entryY=0.5;entryDx=0;entryDy=0;" parent="1" source="mxjQj-CQAJq9ulpeBBqR-14" target="mxjQj-CQAJq9ulpeBBqR-50" edge="1">
                    <mxGeometry relative="1" as="geometry"/>
                </mxCell>
                <mxCell id="mxjQj-CQAJq9ulpeBBqR-14" value="フォロー中の&lt;br&gt;shop一覧画面" style="rounded=0;whiteSpace=wrap;html=1;" parent="1" vertex="1">
                    <mxGeometry x="480" y="290" width="120" height="60" as="geometry"/>
                </mxCell>
                <mxCell id="mxjQj-CQAJq9ulpeBBqR-54" style="edgeStyle=orthogonalEdgeStyle;rounded=1;orthogonalLoop=1;jettySize=auto;html=1;entryX=0;entryY=0.5;entryDx=0;entryDy=0;" parent="1" source="mxjQj-CQAJq9ulpeBBqR-16" target="mxjQj-CQAJq9ulpeBBqR-50" edge="1">
                    <mxGeometry relative="1" as="geometry">
                        <Array as="points">
                            <mxPoint x="610" y="400"/>
                            <mxPoint x="610" y="320"/>
                        </Array>
                    </mxGeometry>
                </mxCell>
                <mxCell id="mxjQj-CQAJq9ulpeBBqR-16" value="shop検索画面" style="rounded=0;whiteSpace=wrap;html=1;" parent="1" vertex="1">
                    <mxGeometry x="480" y="370" width="120" height="60" as="geometry"/>
                </mxCell>
                <mxCell id="mxjQj-CQAJq9ulpeBBqR-56" style="edgeStyle=orthogonalEdgeStyle;rounded=1;orthogonalLoop=1;jettySize=auto;html=1;entryX=0.5;entryY=0;entryDx=0;entryDy=0;" parent="1" source="mxjQj-CQAJq9ulpeBBqR-17" target="mxjQj-CQAJq9ulpeBBqR-6" edge="1">
                    <mxGeometry relative="1" as="geometry">
                        <Array as="points">
                            <mxPoint x="690" y="30"/>
                            <mxPoint x="390" y="30"/>
                        </Array>
                    </mxGeometry>
                </mxCell>
                <mxCell id="mxjQj-CQAJq9ulpeBBqR-17" value="予約登録画面" style="rounded=0;whiteSpace=wrap;html=1;" parent="1" vertex="1">
                    <mxGeometry x="630" y="50" width="120" height="60" as="geometry"/>
                </mxCell>
                <mxCell id="mxjQj-CQAJq9ulpeBBqR-18" value="投稿&lt;br&gt;詳細画面" style="rounded=0;whiteSpace=wrap;html=1;" parent="1" vertex="1">
                    <mxGeometry x="480" y="470" width="120" height="60" as="geometry"/>
                </mxCell>
                <mxCell id="mxjQj-CQAJq9ulpeBBqR-49" style="edgeStyle=orthogonalEdgeStyle;rounded=1;orthogonalLoop=1;jettySize=auto;html=1;entryX=0;entryY=0.5;entryDx=0;entryDy=0;" parent="1" source="mxjQj-CQAJq9ulpeBBqR-19" target="mxjQj-CQAJq9ulpeBBqR-24" edge="1">
                    <mxGeometry relative="1" as="geometry"/>
                </mxCell>
                <mxCell id="mxjQj-CQAJq9ulpeBBqR-19" value="予約一覧画面" style="rounded=0;whiteSpace=wrap;html=1;" parent="1" vertex="1">
                    <mxGeometry x="480" y="550" width="120" height="60" as="geometry"/>
                </mxCell>
                <mxCell id="mxjQj-CQAJq9ulpeBBqR-20" value="shop詳細画面" style="rounded=0;whiteSpace=wrap;html=1;" parent="1" vertex="1">
                    <mxGeometry x="480" y="630" width="120" height="60" as="geometry"/>
                </mxCell>
                <mxCell id="mxjQj-CQAJq9ulpeBBqR-59" style="edgeStyle=orthogonalEdgeStyle;rounded=1;orthogonalLoop=1;jettySize=auto;html=1;entryX=0;entryY=0.5;entryDx=0;entryDy=0;startArrow=none;startFill=0;" parent="1" source="mxjQj-CQAJq9ulpeBBqR-21" target="mxjQj-CQAJq9ulpeBBqR-57" edge="1">
                    <mxGeometry relative="1" as="geometry"/>
                </mxCell>
                <mxCell id="mxjQj-CQAJq9ulpeBBqR-21" value="フォロワー&lt;br&gt;一覧画面" style="rounded=0;whiteSpace=wrap;html=1;" parent="1" vertex="1">
                    <mxGeometry x="480" y="710" width="120" height="60" as="geometry"/>
                </mxCell>
                <mxCell id="mxjQj-CQAJq9ulpeBBqR-22" value="投稿作成画面" style="rounded=0;whiteSpace=wrap;html=1;" parent="1" vertex="1">
                    <mxGeometry x="480" y="790" width="120" height="60" as="geometry"/>
                </mxCell>
                <mxCell id="mxjQj-CQAJq9ulpeBBqR-23" value="予約詳細画面" style="rounded=0;whiteSpace=wrap;html=1;" parent="1" vertex="1">
                    <mxGeometry x="630" y="130" width="120" height="60" as="geometry"/>
                </mxCell>
                <mxCell id="mxjQj-CQAJq9ulpeBBqR-24" value="予約詳細画面" style="rounded=0;whiteSpace=wrap;html=1;" parent="1" vertex="1">
                    <mxGeometry x="630" y="550" width="120" height="60" as="geometry"/>
                </mxCell>
                <mxCell id="mxjQj-CQAJq9ulpeBBqR-26" value="" style="endArrow=classic;html=1;edgeStyle=orthogonalEdgeStyle;elbow=vertical;entryX=0;entryY=0.5;entryDx=0;entryDy=0;" parent="1" target="mxjQj-CQAJq9ulpeBBqR-16" edge="1">
                    <mxGeometry width="50" height="50" relative="1" as="geometry">
                        <mxPoint x="450" y="80" as="sourcePoint"/>
                        <mxPoint x="460" y="400" as="targetPoint"/>
                        <Array as="points">
                            <mxPoint x="470" y="80"/>
                            <mxPoint x="470" y="400"/>
                        </Array>
                    </mxGeometry>
                </mxCell>
                <mxCell id="mxjQj-CQAJq9ulpeBBqR-33" value="" style="endArrow=classic;html=1;entryX=0;entryY=0.5;entryDx=0;entryDy=0;edgeStyle=orthogonalEdgeStyle;" parent="1" target="mxjQj-CQAJq9ulpeBBqR-12" edge="1">
                    <mxGeometry width="50" height="50" relative="1" as="geometry">
                        <mxPoint x="450" y="80" as="sourcePoint"/>
                        <mxPoint x="440" y="290" as="targetPoint"/>
                        <Array as="points">
                            <mxPoint x="470" y="160"/>
                        </Array>
                    </mxGeometry>
                </mxCell>
                <mxCell id="mxjQj-CQAJq9ulpeBBqR-34" value="" style="endArrow=classic;html=1;entryX=0;entryY=0.5;entryDx=0;entryDy=0;edgeStyle=orthogonalEdgeStyle;" parent="1" target="mxjQj-CQAJq9ulpeBBqR-13" edge="1">
                    <mxGeometry width="50" height="50" relative="1" as="geometry">
                        <mxPoint x="450" y="80" as="sourcePoint"/>
                        <mxPoint x="430" y="180" as="targetPoint"/>
                        <Array as="points">
                            <mxPoint x="470" y="240"/>
                        </Array>
                    </mxGeometry>
                </mxCell>
                <mxCell id="mxjQj-CQAJq9ulpeBBqR-35" value="" style="endArrow=classic;html=1;entryX=0;entryY=0.5;entryDx=0;entryDy=0;edgeStyle=orthogonalEdgeStyle;" parent="1" target="mxjQj-CQAJq9ulpeBBqR-14" edge="1">
                    <mxGeometry width="50" height="50" relative="1" as="geometry">
                        <mxPoint x="450" y="80" as="sourcePoint"/>
                        <mxPoint x="430" y="180" as="targetPoint"/>
                        <Array as="points">
                            <mxPoint x="470" y="80"/>
                            <mxPoint x="470" y="320"/>
                        </Array>
                    </mxGeometry>
                </mxCell>
                <mxCell id="mxjQj-CQAJq9ulpeBBqR-36" value="" style="endArrow=classic;html=1;entryX=0;entryY=0.5;entryDx=0;entryDy=0;exitX=1;exitY=0.5;exitDx=0;exitDy=0;" parent="1" source="mxjQj-CQAJq9ulpeBBqR-12" target="mxjQj-CQAJq9ulpeBBqR-23" edge="1">
                    <mxGeometry width="50" height="50" relative="1" as="geometry">
                        <mxPoint x="380" y="230" as="sourcePoint"/>
                        <mxPoint x="430" y="180" as="targetPoint"/>
                    </mxGeometry>
                </mxCell>
                <mxCell id="mxjQj-CQAJq9ulpeBBqR-38" value="" style="endArrow=classic;html=1;exitX=1;exitY=0.5;exitDx=0;exitDy=0;entryX=0;entryY=0.5;entryDx=0;entryDy=0;edgeStyle=orthogonalEdgeStyle;" parent="1" source="mxjQj-CQAJq9ulpeBBqR-1" target="mxjQj-CQAJq9ulpeBBqR-3" edge="1">
                    <mxGeometry width="50" height="50" relative="1" as="geometry">
                        <mxPoint x="380" y="320" as="sourcePoint"/>
                        <mxPoint x="430" y="270" as="targetPoint"/>
                    </mxGeometry>
                </mxCell>
                <mxCell id="mxjQj-CQAJq9ulpeBBqR-39" value="" style="endArrow=classic;html=1;entryX=0;entryY=0.5;entryDx=0;entryDy=0;exitX=1;exitY=0.5;exitDx=0;exitDy=0;edgeStyle=orthogonalEdgeStyle;" parent="1" source="mxjQj-CQAJq9ulpeBBqR-3" target="mxjQj-CQAJq9ulpeBBqR-6" edge="1">
                    <mxGeometry width="50" height="50" relative="1" as="geometry">
                        <mxPoint x="380" y="240" as="sourcePoint"/>
                        <mxPoint x="430" y="190" as="targetPoint"/>
                    </mxGeometry>
                </mxCell>
                <mxCell id="mxjQj-CQAJq9ulpeBBqR-40" value="" style="endArrow=classic;html=1;exitX=1;exitY=0.5;exitDx=0;exitDy=0;entryX=0;entryY=0.5;entryDx=0;entryDy=0;edgeStyle=orthogonalEdgeStyle;" parent="1" source="mxjQj-CQAJq9ulpeBBqR-1" target="mxjQj-CQAJq9ulpeBBqR-4" edge="1">
                    <mxGeometry width="50" height="50" relative="1" as="geometry">
                        <mxPoint x="380" y="350" as="sourcePoint"/>
                        <mxPoint x="430" y="300" as="targetPoint"/>
                    </mxGeometry>
                </mxCell>
                <mxCell id="mxjQj-CQAJq9ulpeBBqR-41" value="" style="endArrow=classic;html=1;entryX=-0.02;entryY=0.392;entryDx=0;entryDy=0;entryPerimeter=0;edgeStyle=orthogonalEdgeStyle;" parent="1" target="mxjQj-CQAJq9ulpeBBqR-5" edge="1">
                    <mxGeometry width="50" height="50" relative="1" as="geometry">
                        <mxPoint x="140" y="80" as="sourcePoint"/>
                        <mxPoint x="430" y="300" as="targetPoint"/>
                        <Array as="points">
                            <mxPoint x="160" y="80"/>
                            <mxPoint x="160" y="584"/>
                        </Array>
                    </mxGeometry>
                </mxCell>
                <mxCell id="mxjQj-CQAJq9ulpeBBqR-42" value="" style="endArrow=classic;html=1;entryX=0;entryY=0.5;entryDx=0;entryDy=0;exitX=1;exitY=0.5;exitDx=0;exitDy=0;" parent="1" source="mxjQj-CQAJq9ulpeBBqR-4" target="mxjQj-CQAJq9ulpeBBqR-8" edge="1">
                    <mxGeometry width="50" height="50" relative="1" as="geometry">
                        <mxPoint x="270" y="680" as="sourcePoint"/>
                        <mxPoint x="320" y="630" as="targetPoint"/>
                    </mxGeometry>
                </mxCell>
                <mxCell id="mxjQj-CQAJq9ulpeBBqR-55" style="edgeStyle=orthogonalEdgeStyle;rounded=1;orthogonalLoop=1;jettySize=auto;html=1;entryX=1;entryY=0.5;entryDx=0;entryDy=0;exitX=1;exitY=0.5;exitDx=0;exitDy=0;" parent="1" source="mxjQj-CQAJq9ulpeBBqR-50" target="mxjQj-CQAJq9ulpeBBqR-17" edge="1">
                    <mxGeometry relative="1" as="geometry"/>
                </mxCell>
                <mxCell id="mxjQj-CQAJq9ulpeBBqR-50" value="shop詳細画面" style="rounded=0;whiteSpace=wrap;html=1;" parent="1" vertex="1">
                    <mxGeometry x="630" y="290" width="120" height="60" as="geometry"/>
                </mxCell>
                <mxCell id="mxjQj-CQAJq9ulpeBBqR-57" value="user詳細画面" style="rounded=0;whiteSpace=wrap;html=1;" parent="1" vertex="1">
                    <mxGeometry x="630" y="710" width="120" height="60" as="geometry"/>
                </mxCell>
            </root>
        </mxGraphModel>
    </diagram>
</mxfile>